<svg xmlns="http://www.w3.org/2000/svg" width="40.997" height="40.998" viewBox="0 0 40.997 40.998">
  <g id="Grupo_29" data-name="Grupo 29" transform="translate(0)">
    <path id="Trazado_79" data-name="Trazado 79" d="M18.4,0,0,18.4l4.223,4.223L18.345,36.742l2.118-2.116L4.235,18.4l16.3-16.3,2.1-2.1Z" fill="rgba(65,75,87,0.96)"/>
    <path id="Trazado_80" data-name="Trazado 80" d="M20.5,6.344,34.621,20.466l2.117,2.118,0,0-16.3,16.3L18.344,41h4.2l18.439-18.45L38.88,20.442l-2.117-2.118L22.641,4.2Z" fill="#414b57"/>
    <path id="Trazado_81" data-name="Trazado 81" d="M0,22.641,18.345,40.987l2.1-2.1,16.3-16.3-.005-.005-2.117-2.117L20.467,34.621l0,.005-2.117,2.117L4.223,22.621,0,18.4Z" fill="#58a7d3"/>
    <path id="Trazado_82" data-name="Trazado 82" d="M22.632,0l-2.1,2.1L4.234,18.4l2.105,2.1.006-.005L20.5,6.344,22.641,4.2,36.763,18.324l2.117,2.118L41,22.549V18.324L22.673,0Z" fill="#58a7d3"/>
  </g>
</svg>
