<svg xmlns="http://www.w3.org/2000/svg" width="217.76" height="202.764" viewBox="0 0 217.76 202.764">
  <path id="Trazado_33" data-name="Trazado 33" d="M232.445,526.02H56.814c-11.63,0-21.064,9.058-21.064,20.237V708.547c0,11.173,9.428,20.237,21.064,20.237H232.445c11.63,0,21.064-9.058,21.064-20.237V546.257C253.51,535.084,244.082,526.02,232.445,526.02Zm-6.033,170.352H185.068l-65.4-55.609V624.33h63.145V584.249H103.5V696.372H69.487V558.432H203.855c7.7,0,12.782,5.056,12.782,13v63.377c0,7.761-5.072,12.64-12.782,12.64H167.773l58.632,47.665v1.264Z" transform="translate(-35.75 -526.02)" fill="#fff"/>
</svg>
