<?xml version="1.0" encoding="utf-8"?>
<!-- Generator: Adobe Adobe Illustrator 24.2.0, SVG Export Plug-In . SVG Version: 6.00 Build 0)  -->
<svg version="1.1" id="Layer_3" xmlns="http://www.w3.org/2000/svg" xmlns:xlink="http://www.w3.org/1999/xlink" x="0px" y="0px"
	 viewBox="0 0 344 384.96" style="enable-background:new 0 0 344 384.96;" xml:space="preserve">
<style type="text/css">
	.st0{fill:#D1D3D4;}
	.st1{fill:#E8E857;}
	.st2{fill:#00B6C9;}
	.st3{fill:#FFFFFF;}
	.st4{fill:none;stroke:#00B6C9;stroke-width:1.1504;stroke-miterlimit:10;}
	.st5{fill:none;stroke:#00B6C9;stroke-width:0.7706;stroke-miterlimit:10;}
	.st6{fill:none;stroke:#00B6C9;stroke-width:0.3897;stroke-miterlimit:10;}
	.st7{fill:none;stroke:#00B6C9;stroke-miterlimit:10;}
	.st8{fill:none;stroke:#D1D3D4;stroke-miterlimit:10;}
</style>
<g>
	<g>
		<g>
			<path class="st1" d="M289.32,334.91l0.82,6.24l-78.46,0.24c0-0.22-0.05-0.44-0.13-0.65c-8.48-36.23-35.97-65.1-71.34-75.65
				c-5.86-1.75-12-2.41-18.12-2.39L54.1,262.9l-0.24-77.8l66.45-0.2c0.35,0.04,10.95,0.05,11.3,0.1
				c53.72,6.12,100.3,35.8,129.2,78.45C275.07,284.53,285.01,308.77,289.32,334.91z"/>
		</g>
		<g>
			<path class="st2" d="M288.38,29.84l0.12,40.57c-0.04,0.35,0.03,37.88-0.01,38.23c-4.51,39.48-21.73,75.16-47.49,102.74
				c-20.71-18.23-45.76-31.51-73.37-38.15c21.91-15.04,37.73-38.36,43.11-65.4l0.09,0l0-0.39c-0.04,0.13-0.04,0.26-0.09,0.39
				l-155.46,0.48c-0.07-21.48,8.56-40.93,22.62-55.03c14.01-14.14,33.41-22.89,54.89-22.96L288.38,29.84z"/>
		</g>
	</g>
</g>
</svg>
