<svg id="Iso_tipo" xmlns="http://www.w3.org/2000/svg" width="46.43" height="45" viewBox="0 0 46.43 45">
  <path id="Trazado_64" data-name="Trazado 64" d="M77.689,526.02H40.241a4.491,4.491,0,0,0-4.491,4.491v36.017a4.491,4.491,0,0,0,4.491,4.491H77.689a4.491,4.491,0,0,0,4.491-4.491V530.511A4.491,4.491,0,0,0,77.689,526.02ZM76.4,563.827H67.587L53.642,551.485v-3.647H67.106v-8.9H50.2v24.884H42.943V533.213h28.65a2.633,2.633,0,0,1,2.725,2.885v14.065a2.589,2.589,0,0,1-2.725,2.805H63.9l12.5,10.578v.281Z" transform="translate(-35.75 -526.02)" fill="#fff"/>
</svg>
