<svg xmlns="http://www.w3.org/2000/svg" width="128.545" height="29.585" viewBox="0 0 128.545 29.585">
  <g id="Grupo_4" data-name="Grupo 4" transform="translate(118.342 392)">
    <g id="Componente_1_4" data-name="Componente 1 – 4" transform="translate(-118.342 -392)">
      <g id="Logo_2">
        <path id="Trazado_33" data-name="Trazado 33" d="M67.223,526.02H39.12a3.183,3.183,0,0,0-3.37,2.953v23.68a3.182,3.182,0,0,0,3.37,2.953h28.1a3.183,3.183,0,0,0,3.37-2.953v-23.68A3.182,3.182,0,0,0,67.223,526.02Zm-.965,24.856H59.642l-10.465-8.114v-2.4h10.1v-5.848H46.591v16.36H41.148V530.749h21.5a1.852,1.852,0,0,1,2.045,1.9v9.247a1.827,1.827,0,0,1-2.045,1.844H56.875l9.382,6.955v.184Z" transform="translate(-35.75 -526.02)" fill="#fff"/>
        <path id="Trazado_34" data-name="Trazado 34" d="M374.77,674.132V660.42h5.443v13.712Z" transform="translate(-337.791 -648.819)" fill="#fff"/>
        <path id="Trazado_35" data-name="Trazado 35" d="M374.77,579.885V575.51h5.443v4.375Z" transform="translate(-337.791 -570.88)" fill="#fff"/>
        <path id="Trazado_36" data-name="Trazado 36" d="M477.148,594.3h-5.292l-11.066-18.74v-.049h0a9.177,9.177,0,0,1,8.041,4.191l5.671,9.95,5.658-9.928a9.228,9.228,0,0,1,8.085-4.213h0v.049Z" transform="translate(-414.429 -570.112)" fill="#fff"/>
        <path id="Trazado_37" data-name="Trazado 37" d="M748.61,594.3V575.51h22.313v3.616h-16.87v3.959h13.411v3.369H754.053v4.23h17.11V594.3H748.61Z" transform="translate(-670.854 -570.112)" fill="#fff"/>
        <path id="Trazado_38" data-name="Trazado 38" d="M1001.135,579.116V594.29h-5.412V579.116H985.98V575.5h24.9v3.616h-9.742Z" transform="translate(-882.333 -570.103)" fill="#fff"/>
      </g>
    </g>
  </g>
</svg>
