<?xml version="1.0" encoding="utf-8"?>
<!-- Generator: Adobe Adobe Illustrator 24.2.0, SVG Export Plug-In . SVG Version: 6.00 Build 0)  -->
<svg version="1.1" id="Layer_3" xmlns="http://www.w3.org/2000/svg" xmlns:xlink="http://www.w3.org/1999/xlink" x="0px" y="0px"
	 viewBox="0 0 670.34 217.89" style="enable-background:new 0 0 670.34 217.89;" xml:space="preserve">
<style type="text/css">
	.st0{fill:#D1D3D4;}
	.st1{fill:#E8E857;}
	.st2{fill:#00B6C9;}
	.st3{fill:#FFFFFF;}
	.st4{fill:none;stroke:#00B6C9;stroke-width:1.1504;stroke-miterlimit:10;}
	.st5{fill:none;stroke:#00B6C9;stroke-width:0.7706;stroke-miterlimit:10;}
	.st6{fill:none;stroke:#00B6C9;stroke-width:0.3897;stroke-miterlimit:10;}
	.st7{fill:none;stroke:#00B6C9;stroke-miterlimit:10;}
	.st8{fill:none;stroke:#D1D3D4;stroke-miterlimit:10;}
</style>
<g>
	<path d="M97.09,195.87l-0.07,0l0-0.36C97.07,195.64,97.09,195.76,97.09,195.87z"/>
	<path class="st1" d="M209.31,25.55l0.52,169.86l-42.45,0.13l-0.39-127.41C166.91,44.69,185.86,25.62,209.31,25.55L209.31,25.55z"/>
	<path class="st2" d="M385.4,194.99l-0.13-42.48c-0.06-5.12,0.08-8.82,0.07-12.47c-0.08-24.59,16.37-43.82,39.44-51.17
		c1.99-0.63,4.08-0.93,6.17-1.01c1.18-0.05,2.32-0.09,2.77-0.13c0.11-0.01,0.22-0.02,0.33-0.02L470,87.6l0.13,42.45l-42.48,0.13
		l-0.4,0.36c-5.45,5.28-6.64,13.16-6.4,21.81c0.02,0.02,0.03,0.03,0.05,0.05l49.29-0.15c3.58-0.01,7.03,0.41,10.35,1.23
		c6.32,1.55,12.05,4.52,16.9,8.55c0.98,0.81,1.91,1.66,2.82,2.57c7.7,7.68,12.5,18.27,12.54,30L385.4,194.99z"/>
	
		<rect x="427.4" y="24.75" transform="matrix(1 -3.076933e-03 3.076933e-03 1 -0.1392 1.446)" class="st1" width="84.95" height="42.45"/>
	<path class="st1" d="M661.23,24.16l0.13,42.45l-42.45,0.13l0.26,84.95c0.04,11.73-4.67,22.35-12.35,30.05
		c-7.68,7.72-18.27,12.5-30,12.54l-0.39-127.41L533.98,67l-0.13-42.45L661.23,24.16z"/>
	
		<rect x="240.92" y="25.39" transform="matrix(1 -3.076933e-03 3.076933e-03 1 -0.2729 0.8071)" class="st1" width="42.48" height="127.41"/>
	<path class="st1" d="M96.63,68.13l0,0.21l-0.05,0C96.6,68.28,96.6,68.21,96.63,68.13z"/>
	<path class="st1" d="M139.49,192.34l0.45,3.41l-42.84,0.13c0-0.12-0.02-0.24-0.07-0.36c-4.63-19.78-19.64-35.55-38.95-41.31
		c-3.2-0.95-6.55-1.32-9.89-1.3l-37.12,0.11l-0.13-42.48l36.28-0.11c0.19,0.02,5.98,0.03,6.17,0.05
		c29.33,3.34,54.77,19.54,70.55,42.83C131.7,164.83,137.13,178.06,139.49,192.34z"/>
	<path class="st2" d="M138.98,25.76l0.07,22.15c-0.02,0.19,0.02,20.68-0.01,20.87c-2.46,21.56-11.86,41.04-25.93,56.1
		c-11.31-9.95-24.99-17.2-40.06-20.83c11.96-8.21,20.6-20.94,23.54-35.71l0.05,0l0-0.21c-0.02,0.07-0.02,0.14-0.05,0.21L11.7,68.61
		c-0.04-11.73,4.67-22.35,12.35-30.05c7.65-7.72,18.24-12.5,29.97-12.54L138.98,25.76z"/>
	<path class="st1" d="M96.63,68.13l0,0.21l-0.05,0C96.6,68.28,96.6,68.21,96.63,68.13z"/>
	<path d="M97.09,195.87l-0.07,0l0-0.36C97.07,195.64,97.09,195.76,97.09,195.87z"/>
	<path d="M97.09,195.87l-0.07,0l0-0.36C97.07,195.64,97.09,195.76,97.09,195.87z"/>
	<path class="st1" d="M368.59,38.37c0.08-2.52,0.05-9.87-0.07-13.31l-42.85,0.13l0.07,22.69l0.05,15.83
		c-1.02,16.9-5.45,34.2-13.62,50.77c-7.37,14.92-17.03,27.82-28.22,38.35c-0.12,0.12-0.24,0.22-0.36,0.33l0.13,42.14l0.33,0
		c15.35-8.06,29.67-19.09,42.04-32.69c10.22-11.19,19.11-24.11,26.24-38.58C367.15,94,367.62,70.1,368.59,38.37z"/>
</g>
</svg>
