<svg xmlns="http://www.w3.org/2000/svg" width="48" height="48" viewBox="0 0 48 48">
  <g id="Circle_Button_SIZE_MEDIUM_STATE_DEFAULT_STYLE_STYLE3_" data-name="Circle Button [SIZE=MEDIUM][STATE=DEFAULT][STYLE=STYLE3]" transform="translate(-0.287)">
    <rect id="Area_SIZE:MEDIUM_STATE:DEFAULT_STYLE:STYLE3_" data-name="Area [SIZE:MEDIUM][STATE:DEFAULT][STYLE:STYLE3]" width="48" height="48" rx="24" transform="translate(0.287)" fill="rgba(255,255,255,0.8)"/>
    <g id="Icon_ICON_feather_phone_SIZE_MEDIUM_STATE_DEFAULT_STYLE_STYLE3_" data-name="Icon [ICON=feather/phone][SIZE=MEDIUM][STATE=DEFAULT][STYLE=STYLE3]" transform="translate(14 14)">
      <rect id="Area_ICON:feather_phone_SIZE:MEDIUM_STATE:DEFAULT_STYLE:STYLE3_" data-name="Area [ICON:feather/phone][SIZE:MEDIUM][STATE:DEFAULT][STYLE:STYLE3]" width="20" height="20" transform="translate(0.287)" fill="rgba(253,73,198,0.35)" opacity="0"/>
      <g id="Icon" transform="translate(0.02)">
        <path id="fd9cd74a-a4df-4cea-93bd-dd63a5738a07" d="M22.079,16.981v3.011A2.007,2.007,0,0,1,19.891,22a19.873,19.873,0,0,1-8.661-3.081A19.57,19.57,0,0,1,5.209,12.9,19.856,19.856,0,0,1,2.128,4.2a2.006,2.006,0,0,1,2-2.188H7.136A2.008,2.008,0,0,1,9.143,3.733a12.932,12.932,0,0,0,.7,2.821,2.006,2.006,0,0,1-.451,2.117L8.119,9.946a16.055,16.055,0,0,0,6.022,6.021l1.274-1.274a2.008,2.008,0,0,1,2.118-.452,12.868,12.868,0,0,0,2.82.7A2.006,2.006,0,0,1,22.079,16.981Z" transform="translate(-2.12 -2.007)" fill="none" stroke="#3f3f3f" stroke-linecap="round" stroke-linejoin="round" stroke-width="2.007"/>
      </g>
    </g>
  </g>
</svg>
