<svg id="shape" xmlns="http://www.w3.org/2000/svg" width="28.809" height="23.753" viewBox="0 0 28.809 23.753">
  <path id="Chat_icon" data-name="Chat icon" d="M675.531,410.088l.059.054A11.686,11.686,0,0,0,682,413.057a.288.288,0,0,0,.244-.078.28.28,0,0,0-.053-.439,8.067,8.067,0,0,1-2.941-2.92l-.119-.2.224-.074c4.243-1.416,6.879-4.439,6.879-7.89,0-2.523-1.514-4.925-4.154-6.589l-.058-.057c-2.231-3.392-6.677-5.5-11.6-5.5-7.164,0-12.994,4.459-12.994,9.94,0,3.5,2.307,6.671,6.171,8.469l.246.115-.191.193a7.658,7.658,0,0,1-1.568,1.228,1.546,1.546,0,0,0,.793,2.871,1.511,1.511,0,0,0,.22-.016,13.278,13.278,0,0,0,6.47-2.723l.081-.064.1.032a15.3,15.3,0,0,0,5.708.738Zm-13.193.654.83-.471a6.661,6.661,0,0,0,2.737-3.112c-4.339-1.343-7.128-4.429-7.128-7.91,0-4.734,5.221-8.586,11.638-8.586s11.639,3.852,11.639,8.586-5.221,8.589-11.639,8.589c-.339,0-.7-.013-1.068-.039a10.19,10.19,0,0,1-6.062,2.833Z" transform="translate(-657.422 -389.307)" fill="#fff"/>
</svg>
