<svg xmlns="http://www.w3.org/2000/svg" width="63.369" height="59.325" viewBox="0 0 63.369 59.325">
  <path id="shape_SHAPE:shapes_07._Organic_Organic_-_Shape_10_" data-name="shape [SHAPE:shapes/07. Organic/Organic - Shape 10]" d="M657.5,2115.369c11.348,1.4,19.257,12.82,8.6,21.663-4.9,4.064-9.361,7.5-12.32,13.335a32.254,32.254,0,0,0-2.928,8.786c-.612,3.337-.911,6.491-3.045,9.285-8.5,11.132-25.363,5.953-29.482-6.329-1.1-3.274-.874-6.526-.986-9.918-.129-3.9-1.542-7.036-3.428-10.4-3.061-5.457-8.405-11.659-5.121-18.9,3.126-6.894,10.721-6.737,14.284-5.865,5.252,1.286,5.961,4.745,10.143,4.062C641.042,2119.811,649.255,2114.351,657.5,2115.369Z" transform="translate(-607.756 -2115.243)" fill="#0d8116"/>
</svg>
